<svg width="39" height="34" viewBox="0 0 39 34" fill="none" xmlns="http://www.w3.org/2000/svg">
<path d="M27.4274 6.13367L29.7628 4.81934L26.5393 11.4308L19.2137 10.7572L21.55 9.44202" stroke="#121331" stroke-linecap="round" stroke-linejoin="round"/>
<path d="M21.5501 9.44202L16.7977 1L22.4415 1.00609C23.0789 1.00664 23.7048 1.17659 24.255 1.49854C24.8051 1.82049 25.2599 2.28287 25.5726 2.83834L27.4273 6.13368" stroke="#121331" stroke-linecap="round" stroke-linejoin="round"/>
<path d="M17.7818 7.38915L14.7851 12.4511L8.98128 9.01536L12.2569 3.48207C12.9986 2.22912 14.8155 2.23996 15.5423 3.5016L17.7818 7.38915V7.38915Z" stroke="#121331" stroke-linecap="round" stroke-linejoin="round"/>
<path d="M24.4439 29.4112L24.4144 32.0909L20.3005 25.9935L24.5467 19.9862L24.5175 22.6671" stroke="black" stroke-linecap="round" stroke-linejoin="round"/>
<path d="M24.5174 22.6661L34.2046 22.7715L31.3774 27.6561C31.0582 28.2079 30.5981 28.6649 30.0442 28.9804C29.4903 29.2959 28.8625 29.4585 28.2251 29.4516L24.4439 29.4101" stroke="black" stroke-linecap="round" stroke-linejoin="round"/>
<path d="M28.1791 20.4298L25.2936 15.3036L31.171 11.9953L34.3252 17.5987C35.0394 18.8675 34.1216 20.4355 32.6655 20.4341L28.1791 20.4298V20.4298Z" stroke="black" stroke-linecap="round" stroke-linejoin="round"/>
<path d="M5.61366 14.9425L3.30768 13.5771L10.6452 13.063L13.7246 19.744L11.4174 18.3782" stroke="#121331" stroke-linecap="round" stroke-linejoin="round"/>
<path d="M11.4174 18.3782L6.48257 26.7148L3.66596 21.8241C3.34771 21.2718 3.18197 20.6448 3.1857 20.0074C3.18943 19.37 3.3625 18.745 3.68719 18.1964L5.61367 14.9425" stroke="#121331" stroke-linecap="round" stroke-linejoin="round"/>
<path d="M11.524 22.6674L17.4061 22.7316L17.3326 29.4757L10.9028 29.4056C9.44686 29.3897 8.54779 27.8108 9.277 26.5506L11.524 22.6674V22.6674Z" stroke="#121331" stroke-linecap="round" stroke-linejoin="round"/>
</svg>
