<svg width="27" height="23" viewBox="0 0 27 23" fill="none" xmlns="http://www.w3.org/2000/svg">
<path d="M7.06047 15.9624C7.06047 15.9624 6.43868 16.0421 6.15963 16.3882C5.72263 16.93 5.73187 17.8284 7.26404 17.8284H20.1229" stroke="#121331" stroke-width="0.949991" stroke-linecap="round" stroke-linejoin="round"/>
<path d="M8.2141 17.8281C9.33766 17.8281 10.2498 18.7403 10.2498 19.8638C10.2498 20.9873 9.33766 21.8995 8.2141 21.8995C7.09062 21.8995 6.17841 20.9873 6.17841 19.8638C6.17841 18.7403 7.09062 17.8281 8.2141 17.8281ZM20.2587 17.8281C21.3822 17.8281 22.2944 18.7403 22.2944 19.8638C22.2944 20.9873 21.3822 21.8995 20.2587 21.8995C19.1352 21.8995 18.223 20.9873 18.223 19.8638C18.223 18.7403 19.1352 17.8281 20.2587 17.8281Z" stroke="black" stroke-width="0.949991"/>
<path d="M5.07522 3.70692L23.1085 3.71331L25.9924 3.71426C26.086 3.71426 26.1324 3.81652 26.0959 3.9424L25.2741 6.77741L23.8982 11.5233C23.4811 12.962 21.9339 14.2679 20.4456 14.4375L9.75724 15.6551C8.2688 15.8247 6.85856 16.0578 6.60995 16.1753C6.60995 16.1753 6.43858 16.0421 6.15953 16.3882M0.71582 1H2.58184C3.61179 1 4.64966 2.19941 4.89813 3.6767L6.95862 15.9284L0.71582 1Z" stroke="#121331" stroke-width="0.949991" stroke-linecap="round" stroke-linejoin="round"/>
</svg>
