<svg width="29" height="37" viewBox="0 0 29 37" fill="none" xmlns="http://www.w3.org/2000/svg">
<path d="M9.68577 23.4981L13.5311 26.1906M28.3404 1.0439C27.155 0.213894 17.94 11.3292 12.1995 19.5276C6.45888 27.7261 6.36652 29.903 7.55176 30.733C8.7371 31.563 10.7512 30.7316 16.4918 22.5332C22.2324 14.3347 29.5257 1.87379 28.3404 1.0439ZM11.5017 20.9048L15.347 23.5972L11.5017 20.9048Z" stroke="#121331"/>
<path d="M8.491 29.3922C6.83645 28.2336 4.55615 28.6357 3.39766 30.2904C2.23906 31.9448 2.40423 34.6591 1 35.808C4.69796 36.998 8.23063 36.1401 9.38912 34.4856C10.5476 32.831 10.1457 30.5507 8.491 29.3922Z" stroke="black" stroke-linecap="round" stroke-linejoin="round"/>
</svg>
